# xmcd
#
# Track frame offsets: 
#        150
#        28642
#        49792
#        67835
#        86755
#        127445
#        140810
#
# Disc length: 2356 seconds
#
# Revision: 1
# Processed by: cddbd v1.5.2PL0 Copyright (c) Steve Scherf et al.
# Submitted via: ExactAudioCopy v0.99pb4
#
DISCID=67093207
DTITLE=Otish Rush - Tops
DYEAR=1900
DGENRE=Blues
TTITLE0=Right Place, Wrong Time
TTITLE1=Crosscut Saw
TTITLE2=Tops
TTITLE3=Feel So Bad
TTITLE4=Gambler's Blues
TTITLE5=Keep On Lovin' Me Baby
TTITLE6=I Wonder Why
EXTD=
EXTT0=
EXTT1=
EXTT2=
EXTT3=
EXTT4=
EXTT5=
EXTT6=
PLAYORDER=
